<?xml version="1.0" encoding="UTF-8" standalone="no"?>
<svg
   xmlns:dc="http://purl.org/dc/elements/1.1/"
   xmlns:cc="http://creativecommons.org/ns#"
   xmlns:rdf="http://www.w3.org/1999/02/22-rdf-syntax-ns#"
   xmlns:svg="http://www.w3.org/2000/svg"
   xmlns="http://www.w3.org/2000/svg"
   xmlns:sodipodi="http://sodipodi.sourceforge.net/DTD/sodipodi-0.dtd"
   xmlns:inkscape="http://www.inkscape.org/namespaces/inkscape"
   width="53.586338mm"
   height="72.05909mm"
   viewBox="0 0 53.586338 72.05909"
   version="1.1"
   id="svg1076"
   inkscape:version="1.0.2-2 (e86c870879, 2021-01-15)"
   sodipodi:docname="logo.svg">
  <defs
     id="defs1070" />
  <sodipodi:namedview
     id="base"
     pagecolor="#ffffff"
     bordercolor="#666666"
     borderopacity="1.0"
     inkscape:pageopacity="0.0"
     inkscape:pageshadow="2"
     inkscape:zoom="0.35"
     inkscape:cx="84.122652"
     inkscape:cy="453.31751"
     inkscape:document-units="mm"
     inkscape:current-layer="layer1"
     inkscape:document-rotation="0"
     showgrid="false"
     fit-margin-top="0"
     fit-margin-left="0"
     fit-margin-right="0"
     fit-margin-bottom="0"
     inkscape:window-width="1080"
     inkscape:window-height="1198"
     inkscape:window-x="1106"
     inkscape:window-y="0"
     inkscape:window-maximized="0" />
  <metadata
     id="metadata1073">
    <rdf:RDF>
      <cc:Work
         rdf:about="">
        <dc:format>image/svg+xml</dc:format>
        <dc:type
           rdf:resource="http://purl.org/dc/dcmitype/StillImage" />
        <dc:title></dc:title>
      </cc:Work>
    </rdf:RDF>
  </metadata>
  <g
     inkscape:label="Layer 1"
     inkscape:groupmode="layer"
     id="layer1"
     transform="translate(-83.575881,-28.226407)">
    <path
       id="path1466-5-9-1-8-2"
       style="fill:#06c3ff;fill-opacity:0.399194;fill-rule:evenodd;stroke:#2b9cb3;stroke-width:0.669645;stroke-linecap:round;stroke-linejoin:round;stroke-opacity:1"
       d="m 93.17111,28.56123 v 7.9375 h 34.39583 v -7.9375 z m 1.32292,9.26042 c -2e-5,7.9375 -5.29167,15.875 -10.58334,21.16666 7.96185,7.96182 17.87923,14.94571 21.34495,30.20023 a 6.6145843,6.6145795 0 0 0 -1.5012,4.19561 6.6145843,6.6145795 0 0 0 5.82084,6.56653 V 68.24873 h -7.14375 l 5.13973,-16.70389 a 5.2916703,5.2761686 0 0 1 -2.4939,-4.47828 5.2916703,5.2761686 0 0 1 5.24412,-5.27616 5.2916703,5.2761686 0 0 1 0.0476,0 5.2916703,5.2761686 0 0 1 5.29166,5.27616 5.2916703,5.2761686 0 0 1 -2.4939,4.47828 l 5.13974,16.70389 h -7.14375 v 31.70195 a 6.6145843,6.6145795 0 0 0 5.82083,-6.56653 6.6145843,6.6145795 0 0 0 -1.5012,-4.19561 c 3.46571,-15.25452 13.38313,-22.23841 21.34495,-30.20023 -5.29166,-5.29166 -10.58333,-13.22916 -10.58333,-21.16666 z"
       inkscape:export-filename="C:\Users\arthu\Projects\cask\web\public\images\favicon.png"
       inkscape:export-xdpi="5.5854502"
       inkscape:export-ydpi="5.5854502" />
  </g>
</svg>
